#define PoleDisplay16x16_width 16
#define PoleDisplay16x16_height 16
static unsigned char PoleDisplay16x16_bits[] = {
   0x00, 0x00, 0x50, 0x00, 0xfc, 0x3f, 0xfc, 0x3f, 0xfc, 0x3f, 0xfc, 0x3f,
   0x00, 0x00, 0x00, 0x00, 0x00, 0x00, 0x00, 0x00, 0x00, 0x00, 0x00, 0x00,
   0x00, 0x00, 0x00, 0x00, 0x00, 0x00, 0x00, 0x00 };
